Jump_normalized_Motion_pl06
version=1
nRows=25
nColumns=43
inDegrees=yes
endheader
time		pelvis_tilt		pelvis_list		pelvis_rotation		pelvis_tx		pelvis_ty		pelvis_tz		hip_flexion_r		hip_adduction_r		hip_rotation_r		knee_angle_r		ankle_angle_r		subtalar_angle_r		mtp_angle_r		hip_flexion_l		hip_adduction_l		hip_rotation_l		knee_angle_l		ankle_angle_l		subtalar_angle_l		mtp_angle_l		lumbar_extension		lumbar_bending		lumbar_rotation		neck_flexion		neck_lateral_bending		neck_rotation		arm_flex_r		arm_add_r		arm_rot_r		elbow_flex_r		pro_sup_r		wrist_flex_r		wrist_dev_r		hand_finger_flex_r		arm_flex_l		arm_add_l		arm_rot_l		elbow_flex_l		pro_sup_l		wrist_flex_l		wrist_dev_l		hand_finger_flex_l		
0.042500		-0.646944		3.606634		88.807959		0.057990		1.747389		1.909286		81.182672		-2.542908		3.075301		-153.018310		24.847551		1.384492		-0.583363		80.178342		-5.974761		11.928481		-152.297694		20.867340		22.031787		23.485418		-62.560340		-2.528915		-0.219738		34.060939		2.172998		-3.686560		17.379959		-14.900611		-15.741186		67.349284		94.843600		3.143731		-14.632180		-14.880664		29.890514		-17.953859		-2.933748		52.246963		103.880279		-8.742586		-11.397456		15.908228		
0.045732		-0.602844		3.409861		88.767052		0.058240		1.747486		1.908016		81.171442		-2.465262		3.024294		-153.002498		24.864910		1.443871		-0.577160		80.161399		-6.045328		12.015146		-152.264336		20.918458		22.081168		23.531915		-62.417021		-2.533798		-0.048516		34.103830		2.078966		-3.809421		17.813069		-15.046594		-15.643506		67.700039		94.554646		2.780222		-14.625230		-14.848712		30.667877		-17.892279		-2.705749		52.211335		104.307569		-8.950138		-11.433170		16.078319		
0.048965		-0.520145		3.212149		88.698621		0.058605		1.747596		1.906760		81.159649		-2.349758		2.897964		-152.994578		24.902666		1.542547		-0.566540		80.156911		-6.186258		12.163738		-152.247512		21.001178		22.183734		23.616500		-62.276279		-2.554494		0.270721		34.263165		1.924596		-4.053390		18.197784		-15.327393		-15.472337		68.106932		94.006566		2.077498		-14.549177		-14.747175		31.650465		-17.785266		-2.279170		51.955139		105.112443		-9.353540		-11.483485		16.418989		
0.052197		-0.507855		2.993005		88.682716		0.058854		1.747737		1.905497		81.184709		-2.320212		2.840624		-152.998973		24.869611		1.579800		-0.570714		80.179523		-6.243606		12.202842		-152.210125		20.993271		22.217635		23.633459		-62.132012		-2.556345		0.267054		34.536675		1.874983		-4.099454		18.906206		-15.416832		-15.324040		68.230488		93.932348		1.987569		-14.494484		-14.641649		32.382077		-17.821617		-2.208815		51.964387		105.270698		-9.458393		-11.456787		16.502525		
0.055429		-0.482190		2.783990		88.643777		0.059178		1.747912		1.904260		81.189015		-2.254121		2.764724		-152.980891		24.861198		1.628720		-0.572873		80.182167		-6.318261		12.267132		-152.167319		21.002138		22.254089		23.662241		-62.005688		-2.589211		0.324038		34.760896		1.860017		-4.162352		19.569921		-15.605098		-15.131096		68.450652		93.866534		1.853012		-14.444755		-14.481608		33.145078		-17.903573		-1.971098		52.051381		105.548987		-9.623702		-11.418993		16.619722		
0.058662		-0.474542		2.584078		88.608784		0.059505		1.748077		1.902996		81.180058		-2.193190		2.711448		-152.967446		24.855622		1.665817		-0.574125		80.173791		-6.369239		12.316380		-152.120507		20.983266		22.275548		23.683187		-61.883847		-2.640254		0.360765		34.920558		1.876256		-4.219666		20.234056		-15.756940		-15.003358		68.699503		93.852459		1.795155		-14.433966		-14.363614		33.877552		-17.974125		-1.768128		52.226117		105.733261		-9.768688		-11.376289		16.672718		
0.061894		-0.459005		2.396817		88.543317		0.059915		1.748346		1.901726		81.155753		-2.093821		2.633286		-152.942839		24.869125		1.702592		-0.573339		80.149070		-6.477648		12.376092		-152.079157		20.938051		22.307221		23.727904		-61.793753		-2.725044		0.429123		35.238223		1.916915		-4.326112		20.948487		-15.970356		-14.824443		68.920668		93.840554		1.709572		-14.386381		-14.137723		34.706293		-18.120608		-1.350167		52.364844		106.033066		-10.056772		-11.233940		16.751262		
0.065126		-0.465591		2.203138		88.515018		0.060234		1.748487		1.900422		81.142178		-2.037969		2.606494		-152.925631		24.866536		1.715238		-0.572626		80.122042		-6.490186		12.419782		-152.030394		20.904992		22.313309		23.749409		-61.669302		-2.781726		0.454249		35.283842		1.934742		-4.369438		21.612595		-16.077917		-14.775992		69.231607		93.826141		1.685363		-14.425504		-14.032185		35.425962		-18.167082		-1.205343		52.629339		106.125747		-10.204862		-11.206045		16.770739		
0.068359		-0.462461		1.997240		88.455303		0.060597		1.748816		1.899125		81.132399		-1.954799		2.543318		-152.893808		24.884901		1.718003		-0.560350		80.100290		-6.574985		12.450443		-151.978530		20.839472		22.311999		23.801359		-61.571031		-2.869090		0.500192		35.688740		1.967817		-4.461850		22.410367		-16.259276		-14.610704		69.422718		93.817791		1.675820		-14.404798		-13.794131		36.327542		-18.327669		-0.736663		52.751322		106.290047		-10.459920		-10.998482		16.793353		
0.071591		-0.465178		1.797613		88.411425		0.060954		1.749102		1.897822		81.115772		-1.883434		2.491081		-152.850088		24.901193		1.698530		-0.538825		80.053395		-6.618001		12.485120		-151.919129		20.794582		22.293962		23.870744		-61.468307		-2.942085		0.562241		35.938303		1.980206		-4.545170		23.152655		-16.419217		-14.516417		69.713844		93.762795		1.618438		-14.439448		-13.514668		37.221577		-18.448214		-0.264223		52.937958		106.361541		-10.767168		-10.794255		16.801570		
0.074823		-0.466853		1.579369		88.392539		0.061226		1.749308		1.896498		81.128037		-1.849049		2.448300		-152.812360		24.908330		1.680418		-0.508520		80.026141		-6.623587		12.524014		-151.870176		20.778216		22.272792		23.942685		-61.338423		-2.984647		0.617819		36.166303		1.967244		-4.612405		23.903046		-16.590391		-14.409053		70.021177		93.691594		1.531364		-14.483784		-13.232202		38.135410		-18.533103		0.169099		53.095886		106.346820		-11.025222		-10.616189		16.802378		
0.078056		-0.472282		1.335564		88.385978		0.061438		1.749451		1.895151		81.158417		-1.840627		2.416307		-152.778291		24.909829		1.678912		-0.476618		80.024146		-6.596066		12.565231		-151.818195		20.786296		22.261934		23.996077		-61.175811		-2.997132		0.662904		36.340487		1.938598		-4.655381		24.670561		-16.758323		-14.277738		70.356227		93.633846		1.445081		-14.536457		-13.008108		39.048840		-18.570283		0.505801		53.253381		106.304679		-11.183395		-10.500975		16.792506		
0.081288		-0.474945		1.077506		88.402529		0.061677		1.749597		1.893793		81.209501		-1.837288		2.390047		-152.712295		24.914866		1.683754		-0.440802		80.031188		-6.553738		12.608012		-151.755895		20.807148		22.257496		24.043798		-61.002127		-3.005309		0.714002		36.509695		1.899628		-4.693577		25.451917		-16.966892		-14.130714		70.705290		93.584097		1.350982		-14.589370		-12.790290		39.987293		-18.610614		0.837090		53.388997		106.263122		-11.314313		-10.392786		16.773979		
0.084520		-0.472855		0.801291		88.407853		0.061806		1.749681		1.892397		81.277242		-1.864366		2.368055		-152.680462		24.923615		1.695323		-0.404138		80.069204		-6.518347		12.642815		-151.718981		20.844214		22.264936		24.080480		-60.804761		-2.997271		0.756126		36.765993		1.841528		-4.726286		26.283291		-17.219563		-13.910035		71.022405		93.572827		1.282610		-14.613886		-12.590870		40.987955		-18.619750		1.185670		53.442283		106.257052		-11.394014		-10.273345		16.746203		
0.087753		-0.468750		0.515121		88.423166		0.061967		1.749792		1.890996		81.344202		-1.887940		2.334973		-152.630235		24.932473		1.702624		-0.324055		80.112696		-6.476622		12.689738		-151.668929		20.890326		22.279477		24.137259		-60.600336		-2.987407		0.857827		37.003685		1.765214		-4.819860		27.072338		-17.544759		-13.686125		71.412871		93.512818		1.052137		-14.628247		-12.177452		42.090659		-18.634029		1.762427		53.434740		106.196318		-11.596571		-10.116726		16.671207		
0.090985		-0.457319		0.255702		88.433600		0.062291		1.749905		1.889548		81.377747		-1.870280		2.272875		-152.583216		24.896952		1.671744		-0.051926		80.128332		-6.458642		12.786881		-151.615343		20.904841		22.328502		24.286146		-60.410008		-3.019171		1.128656		37.141979		1.668397		-5.154139		27.679627		-17.912726		-13.597696		72.005339		93.151494		0.073713		-14.593209		-10.742870		43.380192		-18.631487		2.946751		53.295794		105.718024		-12.402585		-9.943988		16.421108		
0.094217		-0.468879		-0.042235		88.416931		0.062434		1.750006		1.888080		81.462817		-1.864449		2.279746		-152.537486		24.899051		1.670533		-0.023520		80.176562		-6.458321		12.779126		-151.570287		20.913663		22.341120		24.297139		-60.186767		-3.023827		1.108718		37.369483		1.630506		-5.106331		28.659599		-18.197630		-13.254390		72.273328		93.217494		0.155161		-14.564911		-10.522379		44.335399		-18.646059		3.103392		53.420887		105.770859		-12.316322		-9.932325		16.457940		
0.097449		-0.473622		-0.334383		88.410935		0.062623		1.750095		1.886589		81.542567		-1.845339		2.268170		-152.499399		24.901940		1.673307		0.009993		80.217680		-6.460492		12.798071		-151.530507		20.931043		22.336027		24.305996		-59.960708		-3.027531		1.117650		37.571848		1.593502		-5.083562		29.633826		-18.471175		-12.959907		72.552511		93.276544		0.181253		-14.532180		-10.301324		45.352961		-18.669728		3.381875		53.515088		105.898620		-12.251839		-9.872248		16.473978		
0.100682		-0.468590		-0.625190		88.403438		0.062846		1.750204		1.885090		81.615389		-1.818548		2.241704		-152.466863		24.903202		1.676986		0.047056		80.257324		-6.474824		12.825735		-151.482404		20.957098		22.331347		24.313321		-59.734914		-3.034850		1.154782		37.770693		1.560527		-5.092226		30.621216		-18.744645		-12.674914		72.840283		93.321609		0.172691		-14.491036		-10.085011		46.420192		-18.697121		3.743444		53.592240		106.092118		-12.222107		-9.786383		16.466348		
0.103914		-0.460177		-0.916681		88.395095		0.063085		1.750307		1.883575		81.684416		-1.783109		2.207220		-152.434294		24.908160		1.682305		0.090648		80.291056		-6.497138		12.863596		-151.436198		20.996657		22.336530		24.322223		-59.506332		-3.042750		1.204772		37.961948		1.527485		-5.117840		31.622472		-19.023509		-12.383884		73.133770		93.340132		0.129892		-14.443523		-9.863418		47.518623		-18.736298		4.173283		53.662237		106.339889		-12.217320		-9.694717		16.445438		
0.107146		-0.447683		-1.211323		88.382186		0.063342		1.750391		1.882044		81.749383		-1.744381		2.173405		-152.405108		24.920361		1.693209		0.142867		80.323761		-6.521514		12.909320		-151.389253		21.049883		22.364022		24.334932		-59.272854		-3.054753		1.266809		38.142552		1.493635		-5.154973		32.637294		-19.309258		-12.078004		73.434107		93.318551		0.052379		-14.391010		-9.637472		48.645364		-18.790719		4.655340		53.725229		106.633338		-12.235793		-9.609497		16.416362		
0.110379		-0.442597		-1.512561		88.361270		0.063577		1.750461		1.880484		81.816037		-1.706411		2.150994		-152.374353		24.940223		1.715758		0.201687		80.358889		-6.547422		12.960668		-151.338386		21.104192		22.427505		24.352984		-59.028705		-3.072326		1.326196		38.324706		1.458544		-5.198971		33.675271		-19.596902		-11.751428		73.738472		93.255432		-0.041083		-14.332902		-9.419401		49.784214		-18.833749		5.158420		53.774792		106.944722		-12.265469		-9.540846		16.387290		
0.113611		-0.449072		-1.821658		88.324411		0.063782		1.750529		1.878906		81.886697		-1.668793		2.152521		-152.339623		24.967791		1.751892		0.265672		80.401838		-6.564111		13.016324		-151.276351		21.145353		22.541091		24.378548		-58.775745		-3.101580		1.387631		38.506468		1.420777		-5.246136		34.737964		-19.911163		-11.391679		74.050033		93.166309		-0.126864		-14.263418		-9.209852		50.943959		-18.876043		5.684534		53.807322		107.265878		-12.291524		-9.487943		16.364359		
0.116843		-0.471009		-2.128805		88.278005		0.063979		1.750552		1.877277		81.957699		-1.626472		2.181156		-152.307228		25.000953		1.802445		0.338978		80.438897		-6.574456		13.082255		-151.223540		21.156295		22.726949		24.415636		-58.518179		-3.147675		1.447435		38.674708		1.380964		-5.299987		35.807521		-20.269467		-11.007171		74.377739		93.054376		-0.214657		-14.179001		-8.990643		52.126949		-18.913842		6.251908		53.820892		107.602315		-12.327931		-9.449376		16.342646		
0.120076		-0.508896		-2.431052		88.217913		0.064168		1.750556		1.875595		82.023933		-1.585850		2.242571		-152.279336		25.035097		1.871996		0.426927		80.467451		-6.580989		13.162888		-151.167899		21.122025		23.021366		24.473280		-58.260608		-3.215064		1.510514		38.835031		1.338276		-5.365904		36.885239		-20.682428		-10.595660		74.723644		92.928143		-0.312627		-14.073689		-8.743324		53.344450		-18.940098		6.870894		53.798812		107.953832		-12.394207		-9.424119		16.318021		
